<svg width="100" height="42" viewBox="0 0 100 42" fill="none" xmlns="http://www.w3.org/2000/svg">
<path d="M44.2971 3.39253C35.7739 2.56438 13.5438 0.770048 4.0465 0.0109088C1.75044 -0.161623 -0.162946 1.73622 0.0109981 4.01364L2.37664 31.8257C2.93326 38.2439 8.91693 42.7987 15.3181 41.66L44.4363 36.4841C46.2105 36.1735 47.4977 34.6552 47.5325 32.8609L47.7064 7.0847C47.6716 5.18686 46.2105 3.56506 44.2971 3.39253Z" fill="#002EFF"/>
<path d="M33.0526 12.6189C32.7776 12.4036 32.3307 12.4395 32.0557 12.6907L30.4057 14.2696C30.1651 14.5208 30.1651 14.8796 30.4401 15.0949C30.4401 15.0949 32.9838 17.0326 32.9838 21.2311C32.9838 25.1783 30.3026 27.4749 30.3026 27.4749C30.0276 27.6902 30.0276 28.0849 30.2682 28.3361L31.8838 29.8791C32.1244 30.1303 32.5713 30.1662 32.8807 29.9508C32.8807 29.9508 36.6964 27.2237 36.6964 21.2311C36.7651 15.3102 33.0526 12.6189 33.0526 12.6189Z" fill="#FF3D00"/>
<path fill-rule="evenodd" clip-rule="evenodd" d="M16.5412 22.6302C16.5412 22.2572 17.0315 22.2911 17.0315 22.2911V22.325H27.8534C28.2036 22.325 28.6239 22.0876 28.6239 21.5788V20.3239C28.6239 15.4061 25.577 11.7432 20.1835 11.7432C15.1753 11.7432 11.7432 15.033 11.7432 20.9005C11.7432 28.1586 16.1209 30.0918 20.7089 30.0918C24.1761 30.0918 27.223 27.8194 27.5032 27.582C27.7834 27.3446 27.8534 27.0733 27.6083 26.8358C27.6083 26.8358 25.577 25.0383 25.4369 24.8687C25.2267 24.6313 24.9466 24.8009 24.6664 25.0044C23.5106 25.8523 22.7051 26.2932 20.7789 26.2932C18.1873 26.2932 16.5412 24.767 16.5412 22.6302ZM20.2536 15.4401C21.8646 15.4401 22.9503 16.2541 23.4756 17.3055C23.7558 17.9499 23.8959 18.4586 23.9309 19.2387H16.5763C16.6113 18.4586 16.7163 17.9499 17.0315 17.3055C17.5569 16.2202 18.6075 15.4401 20.2536 15.4401Z" fill="white"/>
<path fill-rule="evenodd" clip-rule="evenodd" d="M68.6238 3.92202C68.6238 1.75595 70.3797 0 72.5458 0H93.4632C97.0733 0 99.9999 2.92658 99.9999 6.5367V26.1468C99.9999 29.7569 97.0733 32.6835 93.4632 32.6835H89.5412V35.2982C89.5412 38.9083 86.6146 41.8349 83.0045 41.8349H64.7017C61.0916 41.8349 58.165 38.9083 58.165 35.2982V13.0734C58.165 10.9073 59.921 9.15138 62.0871 9.15138H68.6238V3.92202ZM71.2384 9.15138H83.0045C86.6146 9.15138 89.5412 12.078 89.5412 15.6881V30.0688H93.4632C95.6293 30.0688 97.3852 28.3129 97.3852 26.1468V6.5367C97.3852 4.37063 95.6293 2.61468 93.4632 2.61468H72.5458C71.8238 2.61468 71.2384 3.2 71.2384 3.92202V9.15138ZM60.7797 13.0734C60.7797 12.3514 61.365 11.7661 62.0871 11.7661H83.0045C85.1706 11.7661 86.9265 13.522 86.9265 15.6881V35.2982C86.9265 37.4642 85.1706 39.2202 83.0045 39.2202H64.7017C62.5357 39.2202 60.7797 37.4642 60.7797 35.2982V13.0734Z" fill="#002EFF"/>
<path fill-rule="evenodd" clip-rule="evenodd" d="M64.7019 19.6104C63.9798 19.6104 63.3945 20.1957 63.3945 20.9177C63.3945 21.6397 63.9798 22.225 64.7019 22.225H80.3899C81.112 22.225 81.6973 21.6397 81.6973 20.9177C81.6973 20.1957 81.112 19.6104 80.3899 19.6104H64.7019ZM64.7019 28.7617C63.9798 28.7617 63.3945 29.347 63.3945 30.0691C63.3945 30.7911 63.9798 31.3764 64.7019 31.3764H73.8532C74.5753 31.3764 75.1606 30.7911 75.1606 30.0691C75.1606 29.347 74.5753 28.7617 73.8532 28.7617H64.7019Z" fill="#FD6C98"/>
</svg>
