<svg width="130" height="48" viewBox="0 0 130 48" fill="none" xmlns="http://www.w3.org/2000/svg">
<path d="M55.7453 2.28975C55.0259 1.72652 53.8569 1.82039 53.1375 2.47749L48.8211 6.60784C48.1917 7.26494 48.1917 8.20366 48.9111 8.76688C48.9111 8.76688 55.5655 13.8359 55.5655 24.8189C55.5655 35.1448 48.5514 41.1526 48.5514 41.1526C47.832 41.7158 47.832 42.7484 48.4614 43.4055L52.6879 47.442C53.3174 48.0991 54.4864 48.1929 55.2957 47.6297C55.2957 47.6297 65.2774 40.4955 65.2774 24.8189C65.4572 9.33011 55.7453 2.28975 55.7453 2.28975Z" fill="#FF3D00"/>
<path fill-rule="evenodd" clip-rule="evenodd" d="M12.5516 28.4803C12.5516 27.5044 13.8342 27.5931 13.8342 27.5931V27.6818H42.144C43.0602 27.6818 44.1596 27.0608 44.1596 25.7299V22.4471C44.1596 9.58217 36.1889 0 22.0798 0C8.97851 0 0 8.60621 0 23.9554C0 42.9423 11.4522 47.9996 23.4541 47.9996C32.5242 47.9996 40.4949 42.0551 41.2279 41.434C41.9608 40.813 42.144 40.1032 41.5027 39.4821C41.5027 39.4821 36.1889 34.7797 35.8224 34.3361C35.2727 33.7151 34.5398 34.1587 33.8068 34.691C30.7835 36.9091 28.6763 38.0625 23.6373 38.0625C16.8576 38.0625 12.5516 34.0699 12.5516 28.4803ZM22.2634 9.66992C26.4778 9.66992 29.3179 11.7993 30.6922 14.5497C31.4251 16.2355 31.7916 17.5663 31.8832 19.607H12.6436C12.7352 17.5663 13.01 16.2355 13.8346 14.5497C15.2088 11.7106 17.9574 9.66992 22.2634 9.66992Z" fill="#002EFF"/>
<path fill-rule="evenodd" clip-rule="evenodd" d="M93.2798 4.5C93.2798 2.01472 95.2945 0 97.7798 0H121.78C125.922 0 129.28 3.35786 129.28 7.5V30C129.28 34.1421 125.922 37.5 121.78 37.5H117.28V40.5C117.28 44.6421 113.922 48 109.78 48H88.7798C84.6376 48 81.2798 44.6421 81.2798 40.5V15C81.2798 12.5147 83.2945 10.5 85.7798 10.5H93.2798V4.5ZM96.2798 10.5H109.78C113.922 10.5 117.28 13.8579 117.28 18V34.5H121.78C124.265 34.5 126.28 32.4853 126.28 30V7.5C126.28 5.01472 124.265 3 121.78 3H97.7798C96.9514 3 96.2798 3.67157 96.2798 4.5V10.5ZM84.2798 15C84.2798 14.1716 84.9514 13.5 85.7798 13.5H109.78C112.265 13.5 114.28 15.5147 114.28 18V40.5C114.28 42.9853 112.265 45 109.78 45H88.7798C86.2945 45 84.2798 42.9853 84.2798 40.5V15Z" fill="#002EFF"/>
<path fill-rule="evenodd" clip-rule="evenodd" d="M88.7798 22.5C87.9514 22.5 87.2798 23.1716 87.2798 24C87.2798 24.8284 87.9514 25.5 88.7798 25.5H106.78C107.608 25.5 108.28 24.8284 108.28 24C108.28 23.1716 107.608 22.5 106.78 22.5H88.7798ZM88.7798 33C87.9514 33 87.2798 33.6716 87.2798 34.5C87.2798 35.3284 87.9514 36 88.7798 36H99.2798C100.108 36 100.78 35.3284 100.78 34.5C100.78 33.6716 100.108 33 99.2798 33H88.7798Z" fill="#FD6C98"/>
</svg>
