<svg width="102" height="101" viewBox="0 0 102 101" fill="none" xmlns="http://www.w3.org/2000/svg">
<path d="M85.06 20.8557C83.8578 20.0751 81.9776 20.2055 80.8923 21.1221L73.9811 27.0109C72.8939 27.9349 72.9854 29.3437 74.1682 30.1574C74.1682 30.1574 84.8437 37.4258 84.8437 53.0701C84.8437 67.9007 73.5895 76.4475 73.5895 76.4475C72.4555 77.3071 72.4068 78.7656 73.494 79.6913L80.3526 85.4847C81.4378 86.4105 83.32 86.5225 84.5339 85.7731C84.5339 85.7731 100.655 75.5805 100.655 53.1234C100.655 30.8224 85.06 20.8557 85.06 20.8557Z" fill="#FF3D00"/>
<path fill-rule="evenodd" clip-rule="evenodd" d="M21.8916 59.2893C21.8916 57.7623 23.8176 57.9436 23.8176 57.9436H66.9684C68.3623 57.9436 70.0522 56.9587 70.0522 54.9103V49.8865C70.0522 30.0305 57.9305 15.3066 36.4863 15.3066C16.5221 15.3066 2.91479 28.6399 2.91479 52.2563C2.91479 81.5526 20.3722 89.3313 38.5546 89.3313C52.4561 89.3313 64.5534 80.0929 65.6325 79.1939C66.7192 78.2987 66.9965 77.1829 65.9829 76.2484C65.9829 76.2484 57.8931 68.9052 57.286 68.266C56.4149 67.3315 55.2664 68.0716 54.1891 68.8659C49.584 72.2563 46.3279 74.0617 38.7027 74.0617C28.4302 74.0617 21.8916 67.9146 21.8916 59.2893ZM36.4863 30.3015C42.9986 30.3015 47.2796 33.5068 49.348 37.8054C50.5302 40.4463 50.9779 42.3937 51.1278 45.5822H21.8429C21.9909 42.3937 22.4424 40.4463 23.6246 37.8054C25.6949 33.5068 29.9815 30.3015 36.4863 30.3015Z" fill="white"/>
</svg>
