<svg width="153" height="64" viewBox="0 0 153 64" fill="none" xmlns="http://www.w3.org/2000/svg">
<path d="M67.7668 5.18997C54.7277 3.92304 20.7197 1.17804 6.19043 0.0166885C2.67786 -0.247254 -0.249279 2.65612 0.0168251 6.14017L3.63584 48.6878C4.48737 58.5065 13.6413 65.4745 23.4339 63.7325L67.9797 55.8142C70.694 55.3391 72.6631 53.0164 72.7164 50.2714L72.9825 10.8384C72.9292 7.93498 70.694 5.45391 67.7668 5.18997Z" fill="#002EFF"/>
<path d="M50.5646 19.3042C50.1439 18.9748 49.4603 19.0297 49.0396 19.414L46.5154 21.8294C46.1472 22.2137 46.1472 22.7626 46.5679 23.092C46.5679 23.092 50.4595 26.0564 50.4595 32.4792C50.4595 38.5178 46.3576 42.0312 46.3576 42.0312C45.9369 42.3605 45.9369 42.9644 46.305 43.3487L48.7766 45.7092C49.1448 46.0935 49.8284 46.1484 50.3017 45.819C50.3017 45.819 56.139 41.6469 56.139 32.4792C56.2442 23.4214 50.5646 19.3042 50.5646 19.3042Z" fill="#FF3D00"/>
<path fill-rule="evenodd" clip-rule="evenodd" d="M25.305 34.6202C25.305 34.0494 26.0551 34.1013 26.0551 34.1013V34.1532H42.6107C43.1465 34.1532 43.7894 33.79 43.7894 33.0117V31.0919C43.7894 23.5685 39.1281 17.9648 30.8771 17.9648C23.2155 17.9648 17.9648 22.9978 17.9648 31.974C17.9648 43.0775 24.6621 46.035 31.6808 46.035C36.985 46.035 41.6463 42.5587 42.0749 42.1955C42.5035 41.8323 42.6107 41.4172 42.2356 41.054C42.2356 41.054 39.1281 38.304 38.9138 38.0446C38.5923 37.6814 38.1637 37.9408 37.7351 38.2522C35.967 39.5493 34.7347 40.2238 31.7879 40.2238C27.8232 40.2238 25.305 37.889 25.305 34.6202ZM30.9843 23.6204C33.4489 23.6204 35.1098 24.8657 35.9135 26.4741C36.3421 27.46 36.5564 28.2383 36.61 29.4316H25.3587C25.4122 28.2383 25.573 27.46 26.0552 26.4741C26.8588 24.8138 28.4662 23.6204 30.9843 23.6204Z" fill="white"/>
<path fill-rule="evenodd" clip-rule="evenodd" d="M104.982 6C104.982 2.68629 107.669 0 110.982 0H142.982C148.505 0 152.982 4.47715 152.982 10V40C152.982 45.5228 148.505 50 142.982 50H136.982V54C136.982 59.5228 132.505 64 126.982 64H98.9824C93.4596 64 88.9824 59.5228 88.9824 54V20C88.9824 16.6863 91.6687 14 94.9824 14H104.982V6ZM108.982 14H126.982C132.505 14 136.982 18.4772 136.982 24V46H142.982C146.296 46 148.982 43.3137 148.982 40V10C148.982 6.68629 146.296 4 142.982 4H110.982C109.878 4 108.982 4.89543 108.982 6V14ZM92.9824 20C92.9824 18.8954 93.8779 18 94.9824 18H126.982C130.296 18 132.982 20.6863 132.982 24V54C132.982 57.3137 130.296 60 126.982 60H98.9824C95.6687 60 92.9824 57.3137 92.9824 54V20Z" fill="#002EFF"/>
<path fill-rule="evenodd" clip-rule="evenodd" d="M98.9824 30C97.8779 30 96.9824 30.8954 96.9824 32C96.9824 33.1046 97.8779 34 98.9824 34H122.982C124.087 34 124.982 33.1046 124.982 32C124.982 30.8954 124.087 30 122.982 30H98.9824ZM98.9824 44C97.8779 44 96.9824 44.8954 96.9824 46C96.9824 47.1046 97.8779 48 98.9824 48H112.982C114.087 48 114.982 47.1046 114.982 46C114.982 44.8954 114.087 44 112.982 44H98.9824Z" fill="#FD6C98"/>
</svg>
